<svg height="32" width="32" xmlns="http://www.w3.org/2000/svg"><path d="M649 137.999h26v18h-14m-8 0h-4v-14M661 156l-8 6v-6" fill="none" stroke="#FFF" stroke-linecap="round" stroke-linejoin="round" stroke-miterlimit="10" stroke-width="2"/><path d="M25 13h-1v-3a1 1 0 00-1-1H4a1 1 0 000 2h18v12c0 2.757-2.243 5-5 5h-7c-2.757 0-5-2.243-5-5v-9a1 1 0 00-2 0v9c0 3.859 3.14 7 7 7h7c3.859 0 7-3.141 7-7v-1h1c2.206 0 4-1.794 4-4v-1c0-2.206-1.794-4-4-4zm2 5c0 1.103-.897 2-2 2h-1v-5h1c1.103 0 2 .897 2 2v1zM9 8a1 1 0 001-1V5a1 1 0 00-2 0v2a1 1 0 001 1zm4 0a1 1 0 001-1V3a1 1 0 00-2 0v4a1 1 0 001 1zm4 0a1 1 0 001-1V5a1 1 0 10-2 0v2a1 1 0 001 1z"/></svg>