<?xml version="1.0" encoding="utf-8"?><svg viewBox="0 0 139 139" xmlns="http://www.w3.org/2000/svg" xmlns:xlink="http://www.w3.org/1999/xlink"><style>:root>svg{display:none}:root>svg:target{display:block}</style><svg viewBox="0 0 139 139" id="clock" xmlns="http://www.w3.org/2000/svg"><path d="m90.836 83.216-16.9-9.557V38.768a4.602 4.602 0 0 0-9.203 0v37.575c0 .059.016.115.017.174.006.162.025.319.048.479.021.146.042.291.076.433.035.141.082.277.129.414.051.146.1.287.164.426.061.133.134.257.208.383.075.127.148.254.234.374.088.122.188.235.288.349.097.11.192.217.299.317.107.101.222.19.339.28.126.098.253.191.39.276.052.031.092.073.145.102l19.236 10.878a4.6 4.6 0 0 0 6.27-1.74 4.604 4.604 0 0 0-1.74-6.272z"/><path d="M69.5 6.666C34.853 6.666 6.666 34.853 6.666 69.5c0 34.646 28.187 62.834 62.834 62.834 34.646 0 62.834-28.188 62.834-62.834 0-34.647-28.188-62.834-62.834-62.834zm4 115.501V113h-8v9.167C40.73 120.302 20.677 101.295 17.208 77h9.459v-8h-9.988c.258-27.558 21.716-50.126 48.821-52.167V26h8v-9.167c27.104 2.041 48.563 24.609 48.821 52.167h-9.487v8h8.958c-3.469 24.295-23.521 43.302-48.292 45.167z"/></svg><svg viewBox="0 0 32 32" id="coffee" xmlns="http://www.w3.org/2000/svg"><path d="M649 137.999h26v18h-14m-8 0h-4v-14M661 156l-8 6v-6" fill="none" stroke="#FFF" stroke-linecap="round" stroke-linejoin="round" stroke-miterlimit="10" stroke-width="2"/><path d="M25 13h-1v-3a1 1 0 0 0-1-1H4a1 1 0 0 0 0 2h18v12c0 2.757-2.243 5-5 5h-7c-2.757 0-5-2.243-5-5v-9a1 1 0 0 0-2 0v9c0 3.859 3.14 7 7 7h7c3.859 0 7-3.141 7-7v-1h1c2.206 0 4-1.794 4-4v-1c0-2.206-1.794-4-4-4zm2 5c0 1.103-.897 2-2 2h-1v-5h1c1.103 0 2 .897 2 2v1zM9 8a1 1 0 0 0 1-1V5a1 1 0 0 0-2 0v2a1 1 0 0 0 1 1zm4 0a1 1 0 0 0 1-1V3a1 1 0 0 0-2 0v4a1 1 0 0 0 1 1zm4 0a1 1 0 0 0 1-1V5a1 1 0 1 0-2 0v2a1 1 0 0 0 1 1z"/></svg><svg viewBox="0 0 16 16" id="night" xmlns="http://www.w3.org/2000/svg"><path d="M8 16a7.947 7.947 0 0 0 3.5-.815C8.838 13.886 7 11.161 7 8S8.838 2.114 11.5.815A7.947 7.947 0 0 0 8 0a8 8 0 0 0 0 16zm6-13a2 2 0 0 1-2 2 2 2 0 0 1 2 2 2 2 0 0 1 2-2 2 2 0 0 1-2-2z"/><path d="M10 6a2 2 0 0 1-2 2 2 2 0 0 1 2 2 2 2 0 0 1 2-2 2 2 0 0 1-2-2zm3 7a2 2 0 0 1 2-2 2 2 0 0 1-2-2 2 2 0 0 1-2 2 2 2 0 0 1 2 2z"/></svg></svg>
